<svg width="17" height="16" viewBox="0 0 17 16" fill="none" xmlns="http://www.w3.org/2000/svg">
<g clip-path="url(#clip0)">
<path d="M10.525 14.3002C10.28 14.3002 10.0538 14.1618 9.94326 13.9408L8.01406 10.0824C7.90811 9.87046 7.92631 9.61696 8.06086 9.42131L11.175 5.20021L6.95326 8.31371C6.75761 8.44891 6.50411 8.46581 6.29221 8.36051L2.43446 6.43196C2.20306 6.31561 2.06201 6.07316 2.07631 5.81446C2.08996 5.55576 2.25701 5.32956 2.50011 5.24051L14.8501 0.69051C15.0874 0.60406 15.3545 0.66061 15.5346 0.84066C15.714 1.01941 15.7725 1.28721 15.6847 1.52511L11.1347 13.8751C11.045 14.1182 10.8195 14.2853 10.5608 14.2989C10.5491 14.2996 10.5367 14.3002 10.525 14.3002Z" fill="white"/>
</g>
<defs>
<clipPath id="clip0">
<rect width="15.6" height="15.6" fill="white" transform="translate(0.775024 0.00012207)"/>
</clipPath>
</defs>
</svg>
