<svg width="41" height="34" viewBox="0 0 41 34" fill="none" xmlns="http://www.w3.org/2000/svg">
<g clip-path="url(#clip0)">
<path d="M31.7543 12.8812L32.7503 11.8852C33.0383 11.5973 33.1969 11.2145 33.1969 10.8074C33.1969 10.4002 33.0383 10.0174 32.7504 9.72952L31.6096 8.58873C31.3217 8.30086 30.9389 8.14228 30.5318 8.14228C30.1246 8.14228 29.7418 8.30086 29.454 8.58873L28.4579 9.58475C27.1434 8.6793 25.6517 8.01365 24.046 7.65154V6.17938H24.6521C25.4727 6.17938 26.1403 5.51173 26.1403 4.69115V2.62074C26.1403 1.80009 25.4727 1.13245 24.6521 1.13245H17.8004C16.9798 1.13245 16.3122 1.80009 16.3122 2.62074V4.69108C16.3122 5.51166 16.9798 6.17931 17.8004 6.17931H18.4064V7.65559C16.8081 8.0187 15.3231 8.68282 14.0137 9.58469L13.0177 8.58866C12.7299 8.30079 12.347 8.14221 11.94 8.14221C11.5327 8.14221 11.15 8.30079 10.8621 8.58866L9.72132 9.72945C9.12706 10.3238 9.12706 11.2908 9.72132 11.8851L9.8979 12.0617H5.19077C4.82407 12.0617 4.52671 12.359 4.52671 12.7258C4.52671 13.0925 4.82407 13.3898 5.19077 13.3898H10.3845C9.88966 14.1868 9.48 15.0417 9.16863 15.9423H0.664061C0.297367 15.9423 0 16.2396 0 16.6063C0 16.9731 0.297367 17.2704 0.664061 17.2704H8.78898C8.60165 18.0941 8.4942 18.9477 8.47521 19.8228H4.24999C3.8833 19.8228 3.58593 20.1201 3.58593 20.4869C3.58593 20.8537 3.8833 21.151 4.24999 21.151H8.51492C8.58671 22.0298 8.74801 22.8835 8.98946 23.7034H3.32031C2.95361 23.7034 2.65624 24.0007 2.65624 24.3675C2.65624 24.7342 2.95361 25.0315 3.32031 25.0315H9.46181C11.3938 29.6299 15.9436 32.8675 21.2358 32.8675C28.274 32.8675 34 27.1415 34 20.1033C34 17.4245 33.1699 14.9364 31.7543 12.8812ZM30.3931 9.52784C30.4406 9.48036 30.4947 9.4704 30.5318 9.4704C30.5689 9.4704 30.623 9.48036 30.6705 9.52784L31.8113 10.6686C31.8588 10.7161 31.8688 10.7703 31.8688 10.8074C31.8688 10.8444 31.8588 10.8986 31.8112 10.9461L30.9382 11.8191C30.5031 11.3103 30.0288 10.836 29.52 10.4009L30.3931 9.52784ZM17.6403 4.69115V2.62074C17.6403 2.53242 17.7122 2.46057 17.8004 2.46057H24.6521C24.7403 2.46057 24.8122 2.53242 24.8122 2.62074V4.69108C24.8122 4.7794 24.7403 4.85119 24.6521 4.85119H23.382H19.0704H17.8004C17.7122 4.85126 17.6403 4.7794 17.6403 4.69115ZM19.7345 6.17938H22.7179V7.42562C22.2315 7.36911 21.7372 7.33909 21.2359 7.33909C20.7279 7.33909 20.2272 7.36984 19.7346 7.42781L19.7345 6.17938ZM10.6604 10.6686L11.8012 9.52777C11.8486 9.48029 11.9028 9.47033 11.9399 9.47033C11.9769 9.47033 12.0311 9.48029 12.0786 9.52777L12.9516 10.4009C12.4428 10.836 11.9686 11.3102 11.5335 11.8191L10.6604 10.946C10.5839 10.8696 10.5839 10.7451 10.6604 10.6686ZM21.2358 31.5393C14.93 31.5393 9.79975 26.4091 9.79975 20.1032C9.79975 13.7974 14.93 8.66715 21.2358 8.66715C27.5417 8.66715 32.6719 13.7974 32.6719 20.1032C32.6719 26.4091 27.5417 31.5393 21.2358 31.5393Z" fill="url(#paint0_linear)"/>
<path d="M25.6188 14.781L22.4797 17.9201C22.1126 17.7101 21.6881 17.5894 21.2358 17.5894C19.8497 17.5894 18.722 18.7171 18.722 20.1032C18.722 21.4893 19.8497 22.617 21.2358 22.617C22.6219 22.617 23.7495 21.4893 23.7495 20.1032C23.7495 19.6509 23.6288 19.2264 23.4188 18.8593L26.5579 15.7202C26.8172 15.4609 26.8172 15.0404 26.5579 14.781C26.2985 14.5217 25.8782 14.5217 25.6188 14.781ZM21.2358 21.2889C20.582 21.2889 20.0502 20.7571 20.0502 20.1033C20.0502 19.4495 20.5821 18.9176 21.2358 18.9176C21.8895 18.9176 22.4214 19.4495 22.4214 20.1033C22.4214 20.7571 21.8896 21.2889 21.2358 21.2889Z" fill="url(#paint1_linear)"/>
<path d="M21.2361 11.4937C21.4107 11.4937 21.582 11.4226 21.7055 11.2991C21.829 11.1756 21.9001 11.0042 21.9001 10.8296C21.9001 10.6549 21.8291 10.4836 21.7055 10.3601C21.582 10.2366 21.4107 10.1655 21.2361 10.1655C21.0614 10.1655 20.8901 10.2366 20.7666 10.3601C20.6431 10.4836 20.572 10.6549 20.572 10.8296C20.572 11.0049 20.643 11.1756 20.7666 11.2991C20.8902 11.4226 21.0614 11.4937 21.2361 11.4937Z" fill="url(#paint2_linear)"/>
<path d="M21.2361 28.7126C21.0614 28.7126 20.8901 28.7837 20.7666 28.9072C20.6431 29.0307 20.572 29.2021 20.572 29.3767C20.572 29.552 20.643 29.7227 20.7666 29.8462C20.8901 29.9704 21.0614 30.0408 21.2361 30.0408C21.4107 30.0408 21.582 29.9704 21.7055 29.8462C21.829 29.7227 21.9001 29.5514 21.9001 29.3767C21.9001 29.2021 21.8291 29.0307 21.7055 28.9072C21.582 28.7837 21.4107 28.7126 21.2361 28.7126Z" fill="url(#paint3_linear)"/>
<path d="M14.6784 12.8815C14.5038 12.8815 14.3325 12.9525 14.2089 13.076C14.0854 13.1996 14.0144 13.3709 14.0144 13.5455C14.0144 13.7208 14.0854 13.8915 14.2089 14.0157C14.3325 14.1392 14.5038 14.2096 14.6784 14.2096C14.8531 14.2096 15.0244 14.1392 15.1479 14.0157C15.2714 13.8915 15.3425 13.7208 15.3425 13.5455C15.3425 13.3709 15.2714 13.2002 15.1479 13.076C15.0244 12.9525 14.8531 12.8815 14.6784 12.8815Z" fill="url(#paint4_linear)"/>
<path d="M27.7937 25.9967C27.6183 25.9967 27.4477 26.0678 27.3235 26.1913C27.2 26.3148 27.1296 26.4861 27.1296 26.6608C27.1296 26.8354 27.2 27.0067 27.3235 27.1303C27.4477 27.2538 27.6183 27.3248 27.7937 27.3248C27.9683 27.3248 28.1397 27.2538 28.2631 27.1303C28.3866 27.0067 28.4577 26.8354 28.4577 26.6608C28.4577 26.4861 28.3867 26.3148 28.2631 26.1913C28.1397 26.0678 27.9683 25.9967 27.7937 25.9967Z" fill="url(#paint5_linear)"/>
<path d="M14.6784 25.9967C14.5038 25.9967 14.3325 26.0678 14.2089 26.1913C14.0854 26.3148 14.0144 26.4861 14.0144 26.6608C14.0144 26.8354 14.0854 27.0067 14.2089 27.1303C14.3325 27.2538 14.5038 27.3248 14.6784 27.3248C14.8531 27.3248 15.0244 27.2538 15.1479 27.1303C15.2714 27.0067 15.3425 26.8354 15.3425 26.6608C15.3425 26.4861 15.2714 26.3148 15.1479 26.1913C15.0244 26.0678 14.8531 25.9967 14.6784 25.9967Z" fill="url(#paint6_linear)"/>
<path d="M11.9624 19.4391C11.7871 19.4391 11.6165 19.5101 11.493 19.6337C11.3688 19.7572 11.2984 19.9285 11.2984 20.1031C11.2984 20.2778 11.3688 20.4491 11.493 20.5726C11.6165 20.6968 11.7872 20.7672 11.9624 20.7672C12.1371 20.7672 12.3084 20.6968 12.4319 20.5726C12.5554 20.4491 12.6265 20.2778 12.6265 20.1031C12.6265 19.9285 12.5555 19.7572 12.4319 19.6337C12.3084 19.5101 12.1371 19.4391 11.9624 19.4391Z" fill="url(#paint7_linear)"/>
<path d="M30.9791 19.6337C30.8556 19.5101 30.6842 19.4391 30.5096 19.4391C30.3343 19.4391 30.1636 19.5101 30.0402 19.6337C29.9167 19.7572 29.8455 19.9285 29.8455 20.1031C29.8455 20.2785 29.9166 20.4491 30.0402 20.5726C30.1636 20.6962 30.3349 20.7672 30.5096 20.7672C30.6842 20.7672 30.8556 20.6962 30.9791 20.5726C31.1026 20.4491 31.1737 20.2778 31.1737 20.1031C31.1736 19.9285 31.1026 19.7572 30.9791 19.6337Z" fill="url(#paint8_linear)"/>
<path d="M0.664062 23.7036C0.489414 23.7036 0.318086 23.774 0.19457 23.8975C0.0710547 24.0217 0 24.1924 0 24.3677C0 24.5423 0.0709883 24.713 0.19457 24.8372C0.318086 24.9607 0.489414 25.0317 0.664062 25.0317C0.838711 25.0317 1.01004 24.9607 1.13349 24.8372C1.257 24.7137 1.32812 24.5423 1.32812 24.3677C1.32812 24.1924 1.25707 24.021 1.13349 23.8975C1.01004 23.774 0.838711 23.7036 0.664062 23.7036Z" fill="url(#paint9_linear)"/>
<path d="M30.3142 18.0869C30.6656 17.9821 30.8657 17.6123 30.761 17.2608C30.2915 15.6855 29.425 14.2359 28.2553 13.0686C27.0853 11.9012 25.6336 11.0378 24.057 10.5719C23.7054 10.4679 23.3359 10.6687 23.232 11.0204C23.128 11.3721 23.3288 11.7415 23.6806 11.8455C26.4825 12.6736 28.6536 14.8399 29.4882 17.6401C29.574 17.9283 29.8382 18.1146 30.1243 18.1146C30.187 18.1147 30.2509 18.1056 30.3142 18.0869Z" fill="url(#paint10_linear)"/>
</g>
<ellipse opacity="0.35" cx="27.0179" cy="13.5" rx="13.0179" ry="13.5" fill="url(#paint11_linear)"/>
<defs>
<linearGradient id="paint0_linear" x1="-1.82285e-07" y1="15.9421" x2="33.185" y2="16.1008" gradientUnits="userSpaceOnUse">
<stop stop-color="#FF7D3D"/>
<stop offset="1" stop-color="#F99462" stop-opacity="0.71"/>
</linearGradient>
<linearGradient id="paint1_linear" x1="18.722" y1="18.3341" x2="26.5599" y2="18.3691" gradientUnits="userSpaceOnUse">
<stop stop-color="#FF7D3D"/>
<stop offset="1" stop-color="#F99462" stop-opacity="0.71"/>
</linearGradient>
<linearGradient id="paint2_linear" x1="20.572" y1="10.7853" x2="21.8683" y2="10.7911" gradientUnits="userSpaceOnUse">
<stop stop-color="#FF7D3D"/>
<stop offset="1" stop-color="#F99462" stop-opacity="0.71"/>
</linearGradient>
<linearGradient id="paint3_linear" x1="20.572" y1="29.3324" x2="21.8683" y2="29.3382" gradientUnits="userSpaceOnUse">
<stop stop-color="#FF7D3D"/>
<stop offset="1" stop-color="#F99462" stop-opacity="0.71"/>
</linearGradient>
<linearGradient id="paint4_linear" x1="14.0144" y1="13.5013" x2="15.3107" y2="13.507" gradientUnits="userSpaceOnUse">
<stop stop-color="#FF7D3D"/>
<stop offset="1" stop-color="#F99462" stop-opacity="0.71"/>
</linearGradient>
<linearGradient id="paint5_linear" x1="27.1296" y1="26.6165" x2="28.4259" y2="26.6223" gradientUnits="userSpaceOnUse">
<stop stop-color="#FF7D3D"/>
<stop offset="1" stop-color="#F99462" stop-opacity="0.71"/>
</linearGradient>
<linearGradient id="paint6_linear" x1="14.0144" y1="26.6165" x2="15.3107" y2="26.6223" gradientUnits="userSpaceOnUse">
<stop stop-color="#FF7D3D"/>
<stop offset="1" stop-color="#F99462" stop-opacity="0.71"/>
</linearGradient>
<linearGradient id="paint7_linear" x1="11.2984" y1="20.0589" x2="12.5947" y2="20.0647" gradientUnits="userSpaceOnUse">
<stop stop-color="#FF7D3D"/>
<stop offset="1" stop-color="#F99462" stop-opacity="0.71"/>
</linearGradient>
<linearGradient id="paint8_linear" x1="29.8455" y1="20.0589" x2="31.1418" y2="20.0647" gradientUnits="userSpaceOnUse">
<stop stop-color="#FF7D3D"/>
<stop offset="1" stop-color="#F99462" stop-opacity="0.71"/>
</linearGradient>
<linearGradient id="paint9_linear" x1="-7.12053e-09" y1="24.3234" x2="1.29629" y2="24.3292" gradientUnits="userSpaceOnUse">
<stop stop-color="#FF7D3D"/>
<stop offset="1" stop-color="#F99462" stop-opacity="0.71"/>
</linearGradient>
<linearGradient id="paint10_linear" x1="23.2045" y1="14.0772" x2="30.607" y2="14.1103" gradientUnits="userSpaceOnUse">
<stop stop-color="#FF7D3D"/>
<stop offset="1" stop-color="#F99462" stop-opacity="0.71"/>
</linearGradient>
<linearGradient id="paint11_linear" x1="14" y1="12.6" x2="39.4118" y2="12.7093" gradientUnits="userSpaceOnUse">
<stop stop-color="#F99462"/>
<stop offset="1" stop-color="#F99462" stop-opacity="0.65"/>
</linearGradient>
<clipPath id="clip0">
<rect width="34" height="34" fill="white"/>
</clipPath>
</defs>
</svg>
